<svg viewBox="0 0 330 200" xmlns="http://www.w3.org/2000/svg"><g><g><g><g><g><line x1="46" y1="178" x2="41" y2="178" style="visibility: inherit;" fill="rgb(0, 0, 0)" stroke="rgb(204, 204, 204)" stroke-width="1px"></line><line x1="46" y1="160.2" x2="41" y2="160.2" style="visibility: inherit;" fill="rgb(0, 0, 0)" stroke="rgb(204, 204, 204)" stroke-width="1px"></line><line x1="46" y1="142.4" x2="41" y2="142.4" style="visibility: inherit;" fill="rgb(0, 0, 0)" stroke="rgb(204, 204, 204)" stroke-width="1px"></line><line x1="46" y1="124.6" x2="41" y2="124.6" style="visibility: inherit;" fill="rgb(0, 0, 0)" stroke="rgb(204, 204, 204)" stroke-width="1px"></line><line x1="46" y1="106.79999999999998" x2="41" y2="106.79999999999998" style="visibility: inherit;" fill="rgb(0, 0, 0)" stroke="rgb(204, 204, 204)" stroke-width="1px"></line><line x1="46" y1="88.99999999999999" x2="41" y2="88.99999999999999" style="visibility: inherit;" fill="rgb(0, 0, 0)" stroke="rgb(204, 204, 204)" stroke-width="1px"></line><line x1="46" y1="71.19999999999999" x2="41" y2="71.19999999999999" style="visibility: inherit;" fill="rgb(0, 0, 0)" stroke="rgb(204, 204, 204)" stroke-width="1px"></line><line x1="46" y1="53.39999999999996" x2="41" y2="53.39999999999996" style="visibility: inherit;" fill="rgb(0, 0, 0)" stroke="rgb(204, 204, 204)" stroke-width="1px"></line><line x1="46" y1="35.599999999999994" x2="41" y2="35.599999999999994" style="visibility: inherit;" fill="rgb(0, 0, 0)" stroke="rgb(204, 204, 204)" stroke-width="1px"></line><line x1="46" y1="17.799999999999983" x2="41" y2="17.799999999999983" style="visibility: inherit;" fill="rgb(0, 0, 0)" stroke="rgb(204, 204, 204)" stroke-width="1px"></line><line x1="46" y1="0" x2="41" y2="0" style="visibility: inherit;" fill="rgb(0, 0, 0)" stroke="rgb(204, 204, 204)" stroke-width="1px"></line></g><g transform="translate(36, 0)"><text x="0" y="178" dx="0em" dy="0.3em" style="text-anchor: end; visibility: hidden; font-family: &quot;Helvetica Neue&quot;, sans-serif; font-size: 12px; font-weight: 200;" fill="rgb(50, 49, 63)" stroke="none" stroke-width="1px">0.8</text><text x="0" y="160.2" dx="0em" dy="0.3em" style="text-anchor: end; visibility: inherit; font-family: &quot;Helvetica Neue&quot;, sans-serif; font-size: 12px; font-weight: 200;" fill="rgb(50, 49, 63)" stroke="none" stroke-width="1px">1</text><text x="0" y="142.4" dx="0em" dy="0.3em" style="text-anchor: end; visibility: hidden; font-family: &quot;Helvetica Neue&quot;, sans-serif; font-size: 12px; font-weight: 200;" fill="rgb(50, 49, 63)" stroke="none" stroke-width="1px">1.2</text><text x="0" y="124.6" dx="0em" dy="0.3em" style="text-anchor: end; visibility: inherit; font-family: &quot;Helvetica Neue&quot;, sans-serif; font-size: 12px; font-weight: 200;" fill="rgb(50, 49, 63)" stroke="none" stroke-width="1px">1.4</text><text x="0" y="106.79999999999998" dx="0em" dy="0.3em" style="text-anchor: end; visibility: hidden; font-family: &quot;Helvetica Neue&quot;, sans-serif; font-size: 12px; font-weight: 200;" fill="rgb(50, 49, 63)" stroke="none" stroke-width="1px">1.6</text><text x="0" y="88.99999999999999" dx="0em" dy="0.3em" style="text-anchor: end; visibility: inherit; font-family: &quot;Helvetica Neue&quot;, sans-serif; font-size: 12px; font-weight: 200;" fill="rgb(50, 49, 63)" stroke="none" stroke-width="1px">1.8</text><text x="0" y="71.19999999999999" dx="0em" dy="0.3em" style="text-anchor: end; visibility: hidden; font-family: &quot;Helvetica Neue&quot;, sans-serif; font-size: 12px; font-weight: 200;" fill="rgb(50, 49, 63)" stroke="none" stroke-width="1px">2</text><text x="0" y="53.39999999999996" dx="0em" dy="0.3em" style="text-anchor: end; visibility: inherit; font-family: &quot;Helvetica Neue&quot;, sans-serif; font-size: 12px; font-weight: 200;" fill="rgb(50, 49, 63)" stroke="none" stroke-width="1px">2.2</text><text x="0" y="35.599999999999994" dx="0em" dy="0.3em" style="text-anchor: end; visibility: hidden; font-family: &quot;Helvetica Neue&quot;, sans-serif; font-size: 12px; font-weight: 200;" fill="rgb(50, 49, 63)" stroke="none" stroke-width="1px">2.4</text><text x="0" y="17.799999999999983" dx="0em" dy="0.3em" style="text-anchor: end; visibility: inherit; font-family: &quot;Helvetica Neue&quot;, sans-serif; font-size: 12px; font-weight: 200;" fill="rgb(50, 49, 63)" stroke="none" stroke-width="1px">2.6</text><text x="0" y="0" dx="0em" dy="0.3em" style="text-anchor: end; visibility: hidden; font-family: &quot;Helvetica Neue&quot;, sans-serif; font-size: 12px; font-weight: 200;" fill="rgb(50, 49, 63)" stroke="none" stroke-width="1px">2.8</text></g><line x1="46" y1="0" x2="46" y2="178" fill="rgb(0, 0, 0)" stroke="rgb(204, 204, 204)" stroke-width="1px"></line></g></g><g transform="translate(46, 0)" clip-path="url(#clip_0)"><clipPath id="clip_0"><rect width="284" height="178"></rect></clipPath><g><g><g><line x1="0" y1="0" x2="0" y2="178" fill="rgb(0, 0, 0)" stroke="rgb(60, 60, 60)" stroke-width="1px" opacity="0.25"></line><line x1="23.666666666666664" y1="0" x2="23.666666666666664" y2="178" fill="rgb(0, 0, 0)" stroke="rgb(60, 60, 60)" stroke-width="1px" opacity="0.25"></line><line x1="47.33333333333333" y1="0" x2="47.33333333333333" y2="178" fill="rgb(0, 0, 0)" stroke="rgb(60, 60, 60)" stroke-width="1px" opacity="0.25"></line><line x1="71" y1="0" x2="71" y2="178" fill="rgb(0, 0, 0)" stroke="rgb(60, 60, 60)" stroke-width="1px" opacity="0.25"></line><line x1="94.66666666666666" y1="0" x2="94.66666666666666" y2="178" fill="rgb(0, 0, 0)" stroke="rgb(60, 60, 60)" stroke-width="1px" opacity="0.25"></line><line x1="118.33333333333334" y1="0" x2="118.33333333333334" y2="178" fill="rgb(0, 0, 0)" stroke="rgb(60, 60, 60)" stroke-width="1px" opacity="0.25"></line><line x1="142" y1="0" x2="142" y2="178" fill="rgb(0, 0, 0)" stroke="rgb(60, 60, 60)" stroke-width="1px" opacity="0.25"></line><line x1="165.66666666666669" y1="0" x2="165.66666666666669" y2="178" fill="rgb(0, 0, 0)" stroke="rgb(60, 60, 60)" stroke-width="1px" opacity="0.25"></line><line x1="189.33333333333331" y1="0" x2="189.33333333333331" y2="178" fill="rgb(0, 0, 0)" stroke="rgb(60, 60, 60)" stroke-width="1px" opacity="0.25"></line><line x1="213" y1="0" x2="213" y2="178" fill="rgb(0, 0, 0)" stroke="rgb(60, 60, 60)" stroke-width="1px" opacity="0.25"></line><line x1="236.66666666666669" y1="0" x2="236.66666666666669" y2="178" fill="rgb(0, 0, 0)" stroke="rgb(60, 60, 60)" stroke-width="1px" opacity="0.25"></line><line x1="260.3333333333333" y1="0" x2="260.3333333333333" y2="178" fill="rgb(0, 0, 0)" stroke="rgb(60, 60, 60)" stroke-width="1px" opacity="0.25"></line><line x1="284" y1="0" x2="284" y2="178" fill="rgb(0, 0, 0)" stroke="rgb(60, 60, 60)" stroke-width="1px" opacity="0.25"></line></g><g><line x1="0" y1="178" x2="284" y2="178" fill="rgb(0, 0, 0)" stroke="rgb(60, 60, 60)" stroke-width="1px" opacity="0.25"></line><line x1="0" y1="160.2" x2="284" y2="160.2" fill="rgb(0, 0, 0)" stroke="rgb(60, 60, 60)" stroke-width="1px" opacity="0.25"></line><line x1="0" y1="142.4" x2="284" y2="142.4" fill="rgb(0, 0, 0)" stroke="rgb(60, 60, 60)" stroke-width="1px" opacity="0.25"></line><line x1="0" y1="124.6" x2="284" y2="124.6" fill="rgb(0, 0, 0)" stroke="rgb(60, 60, 60)" stroke-width="1px" opacity="0.25"></line><line x1="0" y1="106.79999999999998" x2="284" y2="106.79999999999998" fill="rgb(0, 0, 0)" stroke="rgb(60, 60, 60)" stroke-width="1px" opacity="0.25"></line><line x1="0" y1="88.99999999999999" x2="284" y2="88.99999999999999" fill="rgb(0, 0, 0)" stroke="rgb(60, 60, 60)" stroke-width="1px" opacity="0.25"></line><line x1="0" y1="71.19999999999999" x2="284" y2="71.19999999999999" fill="rgb(0, 0, 0)" stroke="rgb(60, 60, 60)" stroke-width="1px" opacity="0.25"></line><line x1="0" y1="53.39999999999996" x2="284" y2="53.39999999999996" fill="rgb(0, 0, 0)" stroke="rgb(60, 60, 60)" stroke-width="1px" opacity="0.25"></line><line x1="0" y1="35.599999999999994" x2="284" y2="35.599999999999994" fill="rgb(0, 0, 0)" stroke="rgb(60, 60, 60)" stroke-width="1px" opacity="0.25"></line><line x1="0" y1="17.799999999999983" x2="284" y2="17.799999999999983" fill="rgb(0, 0, 0)" stroke="rgb(60, 60, 60)" stroke-width="1px" opacity="0.25"></line><line x1="0" y1="0" x2="284" y2="0" fill="rgb(0, 0, 0)" stroke="rgb(60, 60, 60)" stroke-width="1px" opacity="0.25"></line></g></g></g><g><g><line x1="0" y1="249.20000000000002" x2="284" y2="249.20000000000002" fill="rgb(0, 0, 0)" stroke="rgb(153, 153, 153)" stroke-width="1.5px"></line></g></g><g><g><line x1="23.666666666666664" y1="0" x2="23.666666666666664" y2="178" fill="rgb(0, 0, 0)" stroke="rgb(153, 153, 153)" stroke-width="1.5px"></line></g></g><g><g><g><g><g><path stroke="rgb(0, 119, 187)" stroke-width="2px" d="M23.666666666666664,-3.7390616416931834L26.03333333333333,12.700130653381336L28.400000000000002,20.606836782182967L30.76666666666667,25.668444379170722L33.13333333333333,29.781706416222335L35.5,32.94899741581506L37.86666666666667,35.002517815837706L40.233333333333334,36.60778805975818L42.6,38.15433494022912L44.96666666666666,40.772423844509916L47.33333333333333,41.836322062948454L49.699999999999996,43.92970276088505L52.06666666666666,44.90293233345429L54.43333333333334,45.483199786528644L56.800000000000004,46.422296405574144L59.16666666666667,46.97516311049742L61.53333333333334,47.647141258908874L63.9,48.30735791894668L66.26666666666667,48.249013354224786L68.63333333333334,48.76515527210398L71,49.629248031947355L73.36666666666667,50.62628869193436L75.73333333333333,51.296271042313236L78.10000000000001,51.36037715076348L80.46666666666667,52.61599605546719L82.83333333333334,52.83789176311102L85.2,52.90599794123649L87.56666666666668,53.28929872523523L89.93333333333332,53.23691709037193L92.3,52.92721582620092L94.66666666666666,53.45166776785213L97.03333333333333,54.211071458680166L99.39999999999999,54.70025404261419L101.76666666666667,54.94229902411354L104.13333333333333,56.248745723528216L106.5,55.75577926434481L108.86666666666667,56.37841544051123L111.23333333333333,56.7662289376032L113.60000000000001,56.844862091291645L115.96666666666667,56.66362574684044L118.33333333333334,56.897481790122555L120.7,58.488702328472286L123.06666666666668,59.29792474879282L125.43333333333332,58.476837607092875L127.8,58.97084959540129L130.16666666666666,58.33672608630533L132.53333333333333,57.39313404210745L134.9,58.70976036612362L137.26666666666668,58.40446478637142L139.63333333333333,59.35766900436127L142,59.68808106609207L144.36666666666665,59.37703156087805L146.73333333333335,58.97155461119617L149.1,59.33977320098384L151.46666666666667,59.74768196296445L153.83333333333331,59.9112348852145L156.20000000000002,60.7737313418382L158.56666666666666,61.35124388480152L160.93333333333334,61.031920007586294L163.29999999999998,61.411980392396345L165.66666666666669,61.7426305780112L168.03333333333333,61.50780298756058L170.4,61.90168832563606L172.76666666666665,62.25873026263339L175.13333333333335,63.04398395722916L177.5,62.75736127945686L179.86666666666665,62.09045424984345L182.23333333333335,60.69240956567947L184.6,60.86710059773536L186.96666666666667,62.10713962381884L189.33333333333331,61.694407457440136L191.70000000000002,62.270596835180626L194.06666666666666,61.876757763407895L196.43333333333334,63.290262865315995L198.79999999999998,63.25712126458245L201.16666666666669,63.102975433888815L203.53333333333333,62.348711261065205L205.9,63.998070935860966L208.26666666666665,65.15901228410786L210.63333333333335,65.86464472523721L213,64.4487088477184L215.36666666666665,65.73074616370447L217.73333333333335,66.68000630824687L220.1,66.28059410795032L222.46666666666667,66.01049313418298L224.83333333333331,67.01675202783062L227.20000000000002,65.60103498665549L229.56666666666666,65.54392853363383L231.93333333333334,65.52649419597797L234.29999999999998,65.17037540819256L236.66666666666669,66.78037763310475L239.03333333333333,66.72814212179684L241.4,66.74752905535946L243.76666666666665,67.243960369469L246.13333333333335,66.60418209475341L248.5,66.6001839848462L250.86666666666665,68.30814908604339L253.23333333333335,68.85605451395371L255.6,67.6547174062841L257.96666666666664,67.036532358652" style="fill: none;" fill="none"></path></g><g><path stroke="rgb(255, 112, 67)" stroke-width="2px" d="M23.666666666666664,6.066928339004505L26.03333333333333,32.25114769935607L28.400000000000002,45.78031337601797L30.76666666666667,54.936493221918724L33.13333333333333,61.8241858928434L35.5,67.10364499697607L37.86666666666667,71.51740979134566L40.233333333333334,75.23140878396875L42.6,78.49139573746697L44.96666666666666,81.26763640293743L47.33333333333333,83.67705371483511L49.699999999999996,85.84117937489742L52.06666666666666,87.76566612616574L54.43333333333334,89.4918162923487L56.800000000000004,91.1174874322504L59.16666666666667,92.70384017946591L61.53333333333334,94.08091957726192L63.9,95.3550944185475L66.26666666666667,96.74578672542195L68.63333333333334,97.88302757066617L71,98.90124624307515L73.36666666666667,100.03802088449768L75.73333333333333,101.06754487484172L78.10000000000001,102.07214266550862L80.46666666666667,103.09208522146929L82.83333333333334,104.00942901699752L85.2,104.98490113314101L87.56666666666668,105.86695988057878L89.93333333333332,106.75524337396986L92.3,107.70322568557516L94.66666666666666,108.4777451287432L97.03333333333333,109.24955077242558L99.39999999999999,110.06588615224183L101.76666666666667,110.93572114137616L104.13333333333333,111.77819153384736L106.5,112.52017696658046L108.86666666666667,113.28366221567188L111.23333333333333,114.0014011103944L113.60000000000001,114.61974489485515L115.96666666666667,115.29570219415135L118.33333333333334,116.02377560087925L120.7,116.77902637694736L123.06666666666668,117.4230647979899L125.43333333333332,117.96798165732247L127.8,118.57696683850696L130.16666666666666,119.2335186742088L132.53333333333333,119.87302268854484L134.9,120.54708848651103L137.26666666666668,121.17759427157962L139.63333333333333,121.83482195897861L142,122.39312891743562L144.36666666666665,122.8837800015111L146.73333333333335,123.47354177182412L149.1,124.02959983917822L151.46666666666667,124.6331110029059L153.83333333333331,125.22519902133133L156.20000000000002,125.80135309171274L158.56666666666666,126.4199306104163L160.93333333333334,126.86879431474108L163.29999999999998,127.53125521773049L165.66666666666669,128.04684384879442L168.03333333333333,128.60658283738778L170.4,129.00065435423696L172.76666666666665,129.49076513774318L175.13333333333335,130.0697320080157L177.5,130.73130566360334L179.86666666666665,131.21182084918905L182.23333333333335,131.70402524888956L184.6,132.15854295701007L186.96666666666667,132.7390228103112L189.33333333333331,133.1766198431706L191.70000000000002,133.74383850272773L194.06666666666666,134.25221808044256L196.43333333333334,134.634423625907L198.79999999999998,135.02762387416794L201.16666666666669,135.62282237123466L203.53333333333333,136.14548893725384L205.9,136.5155761994695L208.26666666666665,137.0658721465754L210.63333333333335,137.44661773537038L213,137.86046109842476L215.36666666666665,138.31953116976825L217.73333333333335,138.7991881565432L220.1,139.35248868247768L222.46666666666667,139.9233757246579L224.83333333333331,140.3490201587004L227.20000000000002,140.7427683410308L229.56666666666666,141.2936803726982L231.93333333333334,141.71774543069952L234.29999999999998,142.11961070668278L236.66666666666669,142.59219222849396L239.03333333333333,143.03794354590667L241.4,143.4215603549922L243.76666666666665,143.7358356813413L246.13333333333335,144.10190341968448L248.5,144.51359596500353L250.86666666666665,144.9744021785734L253.23333333333335,145.28263220252978L255.6,145.69935669631954L257.96666666666664,146.17191456422805" style="fill: none;" fill="none"></path></g></g></g></g><g opacity="0.2"><g><g><g><path stroke="rgb(0, 119, 187)" stroke-width="2px" d="M23.666666666666664,-3.7390616416931834L26.03333333333333,20.919726800918568L28.400000000000002,26.53686637878417L30.76666666666667,30.097351026535023L33.13333333333333,33.63788957595824L35.5,36.01731057167052L37.86666666666667,37.023951959609974L40.233333333333334,38.20051712989806L42.6,39.69484062194823L44.96666666666666,43.385399293899525L47.33333333333333,42.89918131828307L49.699999999999996,46.0220613002777L52.06666666666666,45.87592430114745L54.43333333333334,46.063396406173695L56.800000000000004,47.361335706710804L59.16666666666667,47.52801294326781L61.53333333333334,48.31910915374755L63.9,48.96756954193114L66.26666666666667,48.19066901206969L68.63333333333334,49.28129620552062L71,50.49333996772765L73.36666666666667,51.62332887649535L75.73333333333333,51.96625323295592L78.10000000000001,51.424483251571644L80.46666666666667,53.87161488533019L82.83333333333334,53.059787464141834L85.2,52.97410411834716L87.56666666666668,53.67259950637816L89.93333333333332,53.184535455703724L92.3,52.6175145626068L94.66666666666666,53.97611970901488L97.03333333333333,54.97047514915465L99.39999999999999,55.189436626434315L101.76666666666667,55.184344005584705L104.13333333333333,57.55519242286681L106.5,55.26281280517577L108.86666666666667,57.00105161666869L111.23333333333333,57.15404243469237L113.60000000000001,56.92349524497985L115.96666666666667,56.482389402389515L118.33333333333334,57.13133783340453L120.7,60.07992286682128L123.06666666666668,60.10714716911315L125.43333333333332,57.655750465393055L127.8,59.464861583709705L130.16666666666666,57.70260257720946L132.53333333333333,56.449541997909535L134.9,60.02638669013976L137.26666666666668,58.09916920661925L139.63333333333333,60.31087322235106L142,60.018493127822865L144.36666666666665,59.06598205566405L146.73333333333335,58.56607766151427L149.1,59.70799179077147L151.46666666666667,60.15559072494506L153.83333333333331,60.07478780746459L156.20000000000002,61.6362277984619L158.56666666666666,61.92875642776488L160.93333333333334,60.71259613037108L163.29999999999998,61.79204077720641L165.66666666666669,62.07328076362609L168.03333333333333,61.272975397109974L170.4,62.29557366371154L172.76666666666665,62.615772199630726L175.13333333333335,63.82923765182494L177.5,62.47073860168456L179.86666666666665,61.42354722023009L182.23333333333335,59.29436488151549L184.6,61.04179162979125L186.96666666666667,63.34717864990233L189.33333333333331,61.28167529106139L191.70000000000002,62.84678621292113L194.06666666666666,61.48291869163512L196.43333333333334,64.70376796722411L198.79999999999998,63.223979663848866L201.16666666666669,62.94882960319518L203.53333333333333,61.594447088241566L205.9,65.64743061065673L208.26666666666665,66.31995363235472L210.63333333333335,66.57027716636657L213,63.032772970199574L215.36666666666665,67.01278347969054L217.73333333333335,67.6292664527893L220.1,65.8811819076538L222.46666666666667,65.74039216041564L224.83333333333331,68.02301092147826L227.20000000000002,64.18531794548034L229.56666666666666,65.48682208061217L231.93333333333334,65.50905985832213L234.29999999999998,64.8142566204071L236.66666666666669,68.39037985801696L239.03333333333333,66.67590661048888L241.4,66.76691598892211L243.76666666666665,67.74039168357848L246.13333333333335,65.96440382003783L248.5,66.59618587493895L250.86666666666665,70.01611418724059L253.23333333333335,69.403959941864L255.6,66.45338029861449L257.96666666666664,66.41834731101989" style="fill: none;" fill="none"></path></g><g><path stroke="rgb(255, 112, 67)" stroke-width="2px" d="M23.666666666666664,6.066928339004505L26.03333333333333,45.34325737953185L28.400000000000002,55.92718763351439L30.76666666666667,62.9481505870819L33.13333333333333,68.28139777183532L35.5,72.2181210041046L37.86666666666667,75.86220951080321L40.233333333333334,78.91639215946196L42.6,81.73864836692809L44.96666666666666,84.03845472335814L47.33333333333333,86.08411808013915L49.699999999999996,88.00424833297728L52.06666666666666,89.68968303203582L54.43333333333334,91.21775574684142L56.800000000000004,92.74305934906005L59.16666666666667,94.29014451503753L61.53333333333334,95.45797796249389L63.9,96.6292595386505L66.26666666666667,98.13647372722625L68.63333333333334,99.02026624679564L71,99.91946394443511L73.36666666666667,101.17479498386382L75.73333333333333,102.09706861972808L78.10000000000001,103.07674033641814L80.46666666666667,104.11202771663665L82.83333333333334,104.92677278518676L85.2,105.96037323474883L87.56666666666668,106.74901862144469L89.93333333333332,107.64352686405181L92.3,108.65120799541472L94.66666666666666,109.25226457118987L97.03333333333333,110.02135641574858L99.39999999999999,110.88222153186797L101.76666666666667,111.80555613040923L104.13333333333333,112.62066192626952L106.5,113.26216239929198L108.86666666666667,114.04714746475219L111.23333333333333,114.71914000511168L113.60000000000001,115.23808867931365L115.96666666666667,115.97165949344634L118.33333333333334,116.7518490076065L120.7,117.53427715301513L123.06666666666668,118.06710321903228L125.43333333333332,118.51289851665496L127.8,119.18595201969146L130.16666666666666,119.89007050991057L132.53333333333333,120.51252670288085L134.9,121.22115428447722L137.26666666666668,121.80810005664824L139.63333333333333,122.49204964637755L142,122.95143587589263L144.36666666666665,123.37443108558654L146.73333333333335,124.06330354213713L149.1,124.58565790653228L151.46666666666667,125.2366221666336L153.83333333333331,125.81728703975676L156.20000000000002,126.3775071620941L158.56666666666666,127.03850812911986L160.93333333333334,127.31765801906585L163.29999999999998,128.1937161207199L165.66666666666669,128.5624324798584L168.03333333333333,129.16632182598113L170.4,129.3947258710861L172.76666666666665,129.98087592124938L175.13333333333335,130.64869887828826L177.5,131.39287931919097L179.86666666666665,131.69233603477477L182.23333333333335,132.19622964859008L184.6,132.6130606651306L186.96666666666667,133.31950266361235L189.33333333333331,133.61421687602996L191.70000000000002,134.31105716228484L194.06666666666666,134.76059765815734L196.43333333333334,135.01662917137145L198.79999999999998,135.42082412242888L201.16666666666669,136.21802086830138L203.53333333333333,136.668155503273L205.9,136.88566346168517L208.26666666666665,137.61616809368132L210.63333333333335,137.82736332416533L213,138.27430446147918L215.36666666666665,138.77860124111174L217.73333333333335,139.27884514331816L220.1,139.90578920841216L222.46666666666667,140.49426276683806L224.83333333333331,140.7746645927429L227.20000000000002,141.1365165233612L229.56666666666666,141.84459240436553L231.93333333333334,142.14181048870086L234.29999999999998,142.521475982666L236.66666666666669,143.06477375030516L239.03333333333333,143.48369486331939L241.4,143.80517716407775L243.76666666666665,144.05011100769042L246.13333333333335,144.46797115802764L248.5,144.92528851032256L250.86666666666665,145.43520839214324L253.23333333333335,145.5908622264862L255.6,146.11608119010924L257.96666666666664,146.64447243213652" style="fill: none;" fill="none"></path></g></g></g></g></g></g><g transform="translate(46, 178)" clip-path="url(#clip_1)"><clipPath id="clip_1"><rect width="284" height="22"></rect></clipPath><g><g><line x1="0" y1="0" x2="0" y2="5" style="visibility: inherit;" fill="rgb(0, 0, 0)" stroke="rgb(204, 204, 204)" stroke-width="1px"></line><line x1="23.666666666666664" y1="0" x2="23.666666666666664" y2="5" style="visibility: inherit;" fill="rgb(0, 0, 0)" stroke="rgb(204, 204, 204)" stroke-width="1px"></line><line x1="47.33333333333333" y1="0" x2="47.33333333333333" y2="5" style="visibility: inherit;" fill="rgb(0, 0, 0)" stroke="rgb(204, 204, 204)" stroke-width="1px"></line><line x1="71" y1="0" x2="71" y2="5" style="visibility: inherit;" fill="rgb(0, 0, 0)" stroke="rgb(204, 204, 204)" stroke-width="1px"></line><line x1="94.66666666666666" y1="0" x2="94.66666666666666" y2="5" style="visibility: inherit;" fill="rgb(0, 0, 0)" stroke="rgb(204, 204, 204)" stroke-width="1px"></line><line x1="118.33333333333334" y1="0" x2="118.33333333333334" y2="5" style="visibility: inherit;" fill="rgb(0, 0, 0)" stroke="rgb(204, 204, 204)" stroke-width="1px"></line><line x1="142" y1="0" x2="142" y2="5" style="visibility: inherit;" fill="rgb(0, 0, 0)" stroke="rgb(204, 204, 204)" stroke-width="1px"></line><line x1="165.66666666666669" y1="0" x2="165.66666666666669" y2="5" style="visibility: inherit;" fill="rgb(0, 0, 0)" stroke="rgb(204, 204, 204)" stroke-width="1px"></line><line x1="189.33333333333331" y1="0" x2="189.33333333333331" y2="5" style="visibility: inherit;" fill="rgb(0, 0, 0)" stroke="rgb(204, 204, 204)" stroke-width="1px"></line><line x1="213" y1="0" x2="213" y2="5" style="visibility: inherit;" fill="rgb(0, 0, 0)" stroke="rgb(204, 204, 204)" stroke-width="1px"></line><line x1="236.66666666666669" y1="0" x2="236.66666666666669" y2="5" style="visibility: inherit;" fill="rgb(0, 0, 0)" stroke="rgb(204, 204, 204)" stroke-width="1px"></line><line x1="260.3333333333333" y1="0" x2="260.3333333333333" y2="5" style="visibility: inherit;" fill="rgb(0, 0, 0)" stroke="rgb(204, 204, 204)" stroke-width="1px"></line><line x1="284" y1="0" x2="284" y2="5" style="visibility: inherit;" fill="rgb(0, 0, 0)" stroke="rgb(204, 204, 204)" stroke-width="1px"></line></g><g transform="translate(0, 8)"><text x="0" y="0" dx="0em" dy="0.95em" style="text-anchor: middle; visibility: hidden; font-family: &quot;Helvetica Neue&quot;, sans-serif; font-size: 12px; font-weight: 200;" fill="rgb(50, 49, 63)" stroke="none" stroke-width="1px">-10</text><text x="23.666666666666664" y="0" dx="0em" dy="0.95em" style="text-anchor: middle; visibility: inherit; font-family: &quot;Helvetica Neue&quot;, sans-serif; font-size: 12px; font-weight: 200;" fill="rgb(50, 49, 63)" stroke="none" stroke-width="1px">0</text><text x="47.33333333333333" y="0" dx="0em" dy="0.95em" style="text-anchor: middle; visibility: inherit; font-family: &quot;Helvetica Neue&quot;, sans-serif; font-size: 12px; font-weight: 200;" fill="rgb(50, 49, 63)" stroke="none" stroke-width="1px">10</text><text x="71" y="0" dx="0em" dy="0.95em" style="text-anchor: middle; visibility: inherit; font-family: &quot;Helvetica Neue&quot;, sans-serif; font-size: 12px; font-weight: 200;" fill="rgb(50, 49, 63)" stroke="none" stroke-width="1px">20</text><text x="94.66666666666666" y="0" dx="0em" dy="0.95em" style="text-anchor: middle; visibility: inherit; font-family: &quot;Helvetica Neue&quot;, sans-serif; font-size: 12px; font-weight: 200;" fill="rgb(50, 49, 63)" stroke="none" stroke-width="1px">30</text><text x="118.33333333333334" y="0" dx="0em" dy="0.95em" style="text-anchor: middle; visibility: inherit; font-family: &quot;Helvetica Neue&quot;, sans-serif; font-size: 12px; font-weight: 200;" fill="rgb(50, 49, 63)" stroke="none" stroke-width="1px">40</text><text x="142" y="0" dx="0em" dy="0.95em" style="text-anchor: middle; visibility: inherit; font-family: &quot;Helvetica Neue&quot;, sans-serif; font-size: 12px; font-weight: 200;" fill="rgb(50, 49, 63)" stroke="none" stroke-width="1px">50</text><text x="165.66666666666669" y="0" dx="0em" dy="0.95em" style="text-anchor: middle; visibility: inherit; font-family: &quot;Helvetica Neue&quot;, sans-serif; font-size: 12px; font-weight: 200;" fill="rgb(50, 49, 63)" stroke="none" stroke-width="1px">60</text><text x="189.33333333333331" y="0" dx="0em" dy="0.95em" style="text-anchor: middle; visibility: inherit; font-family: &quot;Helvetica Neue&quot;, sans-serif; font-size: 12px; font-weight: 200;" fill="rgb(50, 49, 63)" stroke="none" stroke-width="1px">70</text><text x="213" y="0" dx="0em" dy="0.95em" style="text-anchor: middle; visibility: inherit; font-family: &quot;Helvetica Neue&quot;, sans-serif; font-size: 12px; font-weight: 200;" fill="rgb(50, 49, 63)" stroke="none" stroke-width="1px">80</text><text x="236.66666666666669" y="0" dx="0em" dy="0.95em" style="text-anchor: middle; visibility: inherit; font-family: &quot;Helvetica Neue&quot;, sans-serif; font-size: 12px; font-weight: 200;" fill="rgb(50, 49, 63)" stroke="none" stroke-width="1px">90</text><text x="260.3333333333333" y="0" dx="0em" dy="0.95em" style="text-anchor: middle; visibility: inherit; font-family: &quot;Helvetica Neue&quot;, sans-serif; font-size: 12px; font-weight: 200;" fill="rgb(50, 49, 63)" stroke="none" stroke-width="1px">100</text><text x="284" y="0" dx="0em" dy="0.95em" style="text-anchor: middle; visibility: hidden; font-family: &quot;Helvetica Neue&quot;, sans-serif; font-size: 12px; font-weight: 200;" fill="rgb(50, 49, 63)" stroke="none" stroke-width="1px">110</text></g><line x1="0" y1="0" x2="284" y2="0" fill="rgb(0, 0, 0)" stroke="rgb(204, 204, 204)" stroke-width="1px"></line></g></g></g></g></svg>